solid dodecahedron drains
facet normal -8.506544057861971e-07 -3.265249329153404e-06 0.9999999999943072
  outer loop
    vertex 3.051758e-05 -10.000019999999997 26.18024
    vertex -5.877789 8.090164 26.180289999999996
    vertex -9.51049 -3.090157 26.180259999999997
  endloop
endfacet
facet normal -8.506544057861971e-07 -3.265249329153404e-06 0.9999999999943072
  outer loop
    vertex -5.877789 8.090164 26.180289999999996
    vertex 3.051758e-05 -10.000019999999997 26.18024
    vertex 5.877830999999999 8.090152999999999 26.180309999999995
  endloop
endfacet
facet normal -8.506544057861971e-07 -3.265249329153404e-06 0.9999999999943072
  outer loop
    vertex 5.877830999999999 8.090152999999999 26.180309999999995
    vertex 3.051758e-05 -10.000019999999997 26.18024
    vertex 9.510521 -3.090137 26.18027
  endloop
endfacet
facet normal -0.8506494810797511 0.276393139985072 0.4472161585944127
  outer loop
    vertex -9.51049 -3.090157 26.180259999999997
    vertex -15.388389999999998 5.000014999999999 9.999982
    vertex -15.388349999999999 -4.999886 16.18027
  endloop
endfacet
facet normal -0.8506494810797511 0.276393139985072 0.4472161585944127
  outer loop
    vertex -15.388389999999998 5.000014999999999 9.999982
    vertex -9.51049 -3.090157 26.180259999999997
    vertex -5.877789 8.090164 26.180289999999996
  endloop
endfacet
facet normal -0.8506494810797511 0.276393139985072 0.4472161585944127
  outer loop
    vertex -15.388389999999998 5.000014999999999 9.999982
    vertex -5.877789 8.090164 26.180289999999996
    vertex -9.510502 13.09018 16.18028
  endloop
endfacet
facet normal -0.8506516817807541 -0.27639355886859424 -0.4472117137324647
  outer loop
    vertex -15.388349999999999 -4.999886 16.18027
    vertex -5.87785 -8.090126 0.0
    vertex -9.510558999999999 -13.090129999999998 9.999999999999998
  endloop
endfacet
facet normal -0.8506516817807541 -0.27639355886859424 -0.4472117137324647
  outer loop
    vertex -5.87785 -8.090126 0.0
    vertex -15.388349999999999 -4.999886 16.18027
    vertex -9.510571 3.0902059999999993 2.016346e-06
  endloop
endfacet
facet normal -0.8506516817807541 -0.27639355886859424 -0.4472117137324647
  outer loop
    vertex -9.510571 3.0902059999999993 2.016346e-06
    vertex -15.388349999999999 -4.999886 16.18027
    vertex -15.388389999999998 5.000014999999999 9.999982
  endloop
endfacet
facet normal 0.850650716568887 0.2763911984925419 0.4472150084653866
  outer loop
    vertex 15.388389999999998 5.000023 9.999996
    vertex 9.510521 -3.090137 26.18027
    vertex 15.38837 -4.999916 16.18027
  endloop
endfacet
facet normal 0.850650716568887 0.2763911984925419 0.4472150084653866
  outer loop
    vertex 9.510521 -3.090137 26.18027
    vertex 15.388389999999998 5.000023 9.999996
    vertex 5.877830999999999 8.090152999999999 26.180309999999995
  endloop
endfacet
facet normal 0.850650716568887 0.2763911984925419 0.4472150084653866
  outer loop
    vertex 5.877830999999999 8.090152999999999 26.180309999999995
    vertex 15.388389999999998 5.000023 9.999996
    vertex 9.510550999999998 13.09018 16.18033
  endloop
endfacet
facet normal -8.296312834311978e-07 0.8944261296713819 0.44721571814995975
  outer loop
    vertex -9.510502 13.09018 16.18028
    vertex 9.510550999999998 13.09018 16.18033
    vertex 0.0 16.18036 9.999999999999998
  endloop
endfacet
facet normal -8.296312834311978e-07 0.8944261296713819 0.44721571814995975
  outer loop
    vertex 9.510550999999998 13.09018 16.18033
    vertex -9.510502 13.09018 16.18028
    vertex -5.877789 8.090164 26.180289999999996
  endloop
endfacet
facet normal -8.296312834311978e-07 0.8944261296713819 0.44721571814995975
  outer loop
    vertex 9.510550999999998 13.09018 16.18033
    vertex -5.877789 8.090164 26.180289999999996
    vertex 5.877830999999999 8.090152999999999 26.180309999999995
  endloop
endfacet
facet normal -0.5257316452571495 0.7236071490538449 -0.4472124003349835
  outer loop
    vertex -9.510571 3.0902059999999993 2.016346e-06
    vertex 0.0 16.18036 9.999999999999998
    vertex 0.0 10.000029999999999 8.94835e-07
  endloop
endfacet
facet normal -0.5257316452571495 0.7236071490538449 -0.4472124003349835
  outer loop
    vertex 0.0 16.18036 9.999999999999998
    vertex -9.510571 3.0902059999999993 2.016346e-06
    vertex -15.388389999999998 5.000014999999999 9.999982
  endloop
endfacet
facet normal -0.5257316452571495 0.7236071490538449 -0.4472124003349835
  outer loop
    vertex 0.0 16.18036 9.999999999999998
    vertex -15.388389999999998 5.000014999999999 9.999982
    vertex -9.510502 13.09018 16.18028
  endloop
endfacet
facet normal 0.5257349163797914 -0.7236041269698876 0.44721344471212005
  outer loop
    vertex 15.38837 -4.999916 16.18027
    vertex 0.0 -16.18036 16.18023
    vertex 9.510558999999999 -13.090129999999998 9.999999999999998
  endloop
endfacet
facet normal 0.5257349163797914 -0.7236041269698876 0.44721344471212005
  outer loop
    vertex 0.0 -16.18036 16.18023
    vertex 15.38837 -4.999916 16.18027
    vertex 3.051758e-05 -10.000019999999997 26.18024
  endloop
endfacet
facet normal 0.5257349163797914 -0.7236041269698876 0.44721344471212005
  outer loop
    vertex 3.051758e-05 -10.000019999999997 26.18024
    vertex 15.38837 -4.999916 16.18027
    vertex 9.510521 -3.090137 26.18027
  endloop
endfacet
facet normal -0.5257351956935329 -0.7236034575312728 0.4472141995262117
  outer loop
    vertex 0.0 -16.18036 16.18023
    vertex -15.388349999999999 -4.999886 16.18027
    vertex -9.510558999999999 -13.090129999999998 9.999999999999998
  endloop
endfacet
facet normal -0.5257351956935329 -0.7236034575312728 0.4472141995262117
  outer loop
    vertex -15.388349999999999 -4.999886 16.18027
    vertex 0.0 -16.18036 16.18023
    vertex 3.051758e-05 -10.000019999999997 26.18024
  endloop
endfacet
facet normal -0.5257351956935329 -0.7236034575312728 0.4472141995262117
  outer loop
    vertex -15.388349999999999 -4.999886 16.18027
    vertex 3.051758e-05 -10.000019999999997 26.18024
    vertex -9.51049 -3.090157 26.180259999999997
  endloop
endfacet
facet normal 1.7016585038222838e-07 6.238517576340211e-08 -0.9999999999999836
  outer loop
    vertex 0.0 10.000029999999999 8.94835e-07
    vertex -5.87785 -8.090126 0.0
    vertex -9.510571 3.0902059999999993 2.016346e-06
  endloop
endfacet
facet normal 1.7016585038222838e-07 6.238517576340211e-08 -0.9999999999999836
  outer loop
    vertex -5.87785 -8.090126 0.0
    vertex 0.0 10.000029999999999 8.94835e-07
    vertex 5.877837999999999 -8.090126 1.963632e-06
  endloop
endfacet
facet normal 1.7016585038222838e-07 6.238517576340211e-08 -0.9999999999999836
  outer loop
    vertex 5.877837999999999 -8.090126 1.963632e-06
    vertex 0.0 10.000029999999999 8.94835e-07
    vertex 9.510558999999999 3.0902059999999993 5.2758279999999995e-06
  endloop
endfacet
facet normal 0.5257317072310942 0.7236068931385293 -0.44721274156075225
  outer loop
    vertex 0.0 16.18036 9.999999999999998
    vertex 9.510558999999999 3.0902059999999993 5.2758279999999995e-06
    vertex 0.0 10.000029999999999 8.94835e-07
  endloop
endfacet
facet normal 0.5257317072310942 0.7236068931385293 -0.44721274156075225
  outer loop
    vertex 9.510558999999999 3.0902059999999993 5.2758279999999995e-06
    vertex 0.0 16.18036 9.999999999999998
    vertex 15.388389999999998 5.000023 9.999996
  endloop
endfacet
facet normal 0.5257317072310942 0.7236068931385293 -0.44721274156075225
  outer loop
    vertex 15.388389999999998 5.000023 9.999996
    vertex 0.0 16.18036 9.999999999999998
    vertex 9.510550999999998 13.09018 16.18033
  endloop
endfacet
facet normal 0.8506510864672691 -0.2763930122329433 -0.44721318393005277
  outer loop
    vertex 5.877837999999999 -8.090126 1.963632e-06
    vertex 15.38837 -4.999916 16.18027
    vertex 9.510558999999999 -13.090129999999998 9.999999999999998
  endloop
endfacet
facet normal 0.8506510864672691 -0.2763930122329433 -0.44721318393005277
  outer loop
    vertex 15.38837 -4.999916 16.18027
    vertex 5.877837999999999 -8.090126 1.963632e-06
    vertex 9.510558999999999 3.0902059999999993 5.2758279999999995e-06
  endloop
endfacet
facet normal 0.8506510864672691 -0.2763930122329433 -0.44721318393005277
  outer loop
    vertex 15.38837 -4.999916 16.18027
    vertex 9.510558999999999 3.0902059999999993 5.2758279999999995e-06
    vertex 15.388389999999998 5.000023 9.999996
  endloop
endfacet
facet normal 2.064763084051268e-08 -0.8944252347315892 -0.447217508015218
  outer loop
    vertex 5.877837999999999 -8.090126 1.963632e-06
    vertex -9.510558999999999 -13.090129999999998 9.999999999999998
    vertex -5.87785 -8.090126 0.0
  endloop
endfacet
facet normal 2.064763084051268e-08 -0.8944252347315892 -0.447217508015218
  outer loop
    vertex -9.510558999999999 -13.090129999999998 9.999999999999998
    vertex 5.877837999999999 -8.090126 1.963632e-06
    vertex 9.510558999999999 -13.090129999999998 9.999999999999998
  endloop
endfacet
facet normal 2.064763084051268e-08 -0.8944252347315892 -0.447217508015218
  outer loop
    vertex -9.510558999999999 -13.090129999999998 9.999999999999998
    vertex 9.510558999999999 -13.090129999999998 9.999999999999998
    vertex 0.0 -16.18036 16.18023
  endloop
endfacet
endsolid dodecahedron drains
